<svg width="16" height="12" viewBox="0 0 16 12" fill="none" xmlns="http://www.w3.org/2000/svg">
<path d="M1.41333 11.7799C1.02788 11.7799 0.695956 11.6407 0.417574 11.3624C0.139191 11.084 0 10.752 0 10.3666V1.41333C0 1.02788 0.139191 0.695956 0.417574 0.417573C0.695956 0.139191 1.02788 0 1.41333 0H14.5863C14.9864 0 15.322 0.139191 15.593 0.417573C15.8641 0.695956 15.9996 1.02788 15.9996 1.41333V10.3666C15.9996 10.752 15.8641 11.084 15.593 11.3624C15.322 11.6407 14.9864 11.7799 14.5863 11.7799H1.41333ZM7.99981 6.55601L14.8568 2.52061L14.7216 1.14281L7.99981 5.07679L1.27806 1.14281L1.14281 2.52061L7.99981 6.55601Z" fill="white"/>
</svg>
