<svg width="8" height="8" viewBox="0 0 8 8" fill="none" xmlns="http://www.w3.org/2000/svg">
<path d="M0.20894 6.78224C-0.0696466 7.06082 -0.0696467 7.5125 0.20894 7.79109C0.487527 8.06968 0.939205 8.06968 1.21779 7.79109L4.00001 5.00887L6.78224 7.79109C7.06082 8.06968 7.5125 8.06968 7.79109 7.79109C8.06968 7.5125 8.06968 7.06082 7.79109 6.78224L5.00887 4.00001L7.79109 1.21779C8.06968 0.939205 8.06968 0.487527 7.79109 0.20894C7.5125 -0.0696467 7.06082 -0.0696466 6.78224 0.20894L4.00001 2.99116L1.21779 0.20894C0.939205 -0.0696466 0.487527 -0.0696467 0.20894 0.20894C-0.0696467 0.487527 -0.0696466 0.939205 0.20894 1.21779L2.99116 4.00001L0.20894 6.78224Z" fill="white"/>
</svg>
