<svg width="14" height="14" viewBox="0 0 14 14" fill="none" xmlns="http://www.w3.org/2000/svg">
<path d="M0 14.0001V3.09204H3.09204V0H10.3927V6.18409H14V14.0001H8.24545V10.908H5.75459V14.0001H0ZM1.11653 12.8835H3.09204V10.908H1.11653V12.8835ZM1.11653 9.5338H3.09204V7.55831H1.11653V9.5338ZM1.11653 6.18409H3.09204V4.20859H1.11653V6.18409ZM4.20857 9.5338H6.18409V7.55831H4.20857V9.5338ZM4.20857 6.18409H6.18409V4.20859H4.20857V6.18409ZM4.20857 3.09204H6.18409V1.11655H4.20857V3.09204ZM7.30061 9.5338H9.27613V7.55831H7.30061V9.5338ZM7.30061 6.18409H9.27613V4.20859H7.30061V6.18409ZM7.30061 3.09204H9.27613V1.11655H7.30061V3.09204ZM10.908 12.8835H12.8835V10.908H10.908V12.8835ZM10.908 9.5338H12.8835V7.55831H10.908V9.5338Z" fill="white"/>
</svg>
