<svg width="114" height="23" viewBox="0 0 114 23" fill="none" xmlns="http://www.w3.org/2000/svg">
<path d="M36.4334 6.17009C33.2752 6.17009 30.6951 8.51357 30.6951 11.7469C30.6951 14.9541 33.2752 17.3221 36.4334 17.3221C39.5984 17.3221 42.1785 14.9541 42.1785 11.7469C42.1785 8.51357 39.5984 6.17009 36.4334 6.17009ZM36.4334 15.1261C34.7005 15.1261 33.2096 13.7315 33.2096 11.7469C33.2096 9.73611 34.7005 8.36608 36.4334 8.36608C38.1664 8.36608 39.664 9.73611 39.664 11.7469C39.664 13.7315 38.1664 15.1261 36.4334 15.1261ZM23.913 6.17009C20.748 6.17009 18.1747 8.51357 18.1747 11.7469C18.1747 14.9541 20.748 17.3221 23.913 17.3221C27.0763 17.3221 29.6513 14.9541 29.6513 11.7469C29.6513 8.51357 27.0763 6.17009 23.913 6.17009ZM23.913 15.1261C22.1784 15.1261 20.6825 13.7315 20.6825 11.7469C20.6825 9.73611 22.1784 8.36608 23.913 8.36608C25.6459 8.36608 27.1368 9.73611 27.1368 11.7469C27.1368 13.7315 25.6459 15.1261 23.913 15.1261ZM9.01423 7.87935V10.2491H14.8181C14.6483 11.5732 14.1945 12.5467 13.4987 13.2251C12.6515 14.0445 11.3321 14.954 9.01423 14.954C5.44249 14.954 2.64561 12.1435 2.64561 8.66106C2.64561 5.17861 5.44249 2.36807 9.01423 2.36807C10.9455 2.36807 12.3507 3.10389 13.3877 4.05767L15.1005 2.38774C13.6499 1.03737 11.7204 4.2694e-06 9.01423 4.2694e-06C4.11633 4.2694e-06 0 3.8856 0 8.66106C0 13.4365 4.11633 17.3221 9.01423 17.3221C11.6615 17.3221 13.6499 16.4765 15.2131 14.8901C16.8149 13.3284 17.3141 11.1324 17.3141 9.35919C17.3141 8.80855 17.2671 8.30216 17.183 7.87935H9.01423ZM69.9372 9.71645C69.4649 8.46932 68.0076 6.17009 65.0393 6.17009C62.0979 6.17009 59.6489 8.42999 59.6489 11.7469C59.6489 14.8705 62.0727 17.3221 65.3217 17.3221C67.9488 17.3221 69.4649 15.7603 70.0885 14.8508L68.1388 13.584C67.4883 14.5116 66.6025 15.1261 65.3217 15.1261C64.0493 15.1261 63.1366 14.5575 62.5517 13.4365L70.2011 10.3507L69.9372 9.71645ZM62.1382 11.5732C62.0727 9.4231 63.851 8.32183 65.125 8.32183C66.1235 8.32183 66.9706 8.80855 67.253 9.50504L62.1382 11.5732ZM55.9209 16.9829H58.4354V0.59489H55.9209V16.9829ZM51.8029 7.41229H51.7188C51.1541 6.76005 50.0767 6.17009 48.7118 6.17009C45.8477 6.17009 43.229 8.62173 43.229 11.7649C43.229 14.8901 45.8477 17.3221 48.7118 17.3221C50.0767 17.3221 51.1541 16.7272 51.7188 16.0553H51.8029V16.8551C51.8029 18.9871 50.6347 20.1327 48.7505 20.1327C47.2142 20.1327 46.2612 19.051 45.8679 18.1415L43.6811 19.0314C44.3114 20.5096 45.9805 22.3286 48.7505 22.3286C51.6986 22.3286 54.1863 20.6374 54.1863 16.5224V6.50931H51.8029V7.41229ZM48.927 15.1261C47.1941 15.1261 45.7435 13.7118 45.7435 11.7649C45.7435 9.80003 47.1941 8.36608 48.927 8.36608C50.6347 8.36608 51.981 9.80003 51.981 11.7649C51.981 13.7118 50.6347 15.1261 48.927 15.1261ZM81.7097 0.59489L75.6957 0.59489V16.9829H78.2035V10.7735H81.7097C84.4948 10.7735 87.2261 8.80855 87.2261 5.68336C87.2261 2.55981 84.4881 0.59489 81.7097 0.59489ZM81.7752 8.4939H78.2035V2.87446L81.7752 2.87446C83.6477 2.87446 84.7167 4.39035 84.7167 5.68336C84.7167 6.95179 83.6477 8.4939 81.7752 8.4939ZM97.2774 6.13895C95.4655 6.13895 93.5813 6.91902 92.8065 8.64795L95.0319 9.55748C95.5109 8.64795 96.3917 8.35297 97.3228 8.35297C98.6238 8.35297 99.9432 9.11501 99.9634 10.4605V10.6325C99.5096 10.3769 98.5381 9.99832 97.343 9.99832C94.9462 9.99832 92.5039 11.2848 92.5039 13.6856C92.5039 15.8816 94.4671 17.2959 96.674 17.2959C98.3616 17.2959 99.2927 16.5535 99.8777 15.6899H99.9634V16.9567H102.385V10.6702C102.385 7.76464 100.16 6.13895 97.2774 6.13895ZM96.9749 15.1196C96.1547 15.1196 95.0117 14.723 95.0117 13.7315C95.0117 12.4631 96.437 11.9764 97.6708 11.9764C98.7751 11.9764 99.2927 12.214 99.9634 12.527C99.7667 14.0445 98.4271 15.1196 96.9749 15.1196ZM111.21 6.49784L108.327 13.602H108.241L105.261 6.49784H102.557L107.035 16.4257L104.48 21.9501H107.1L114 6.49784H111.21ZM88.6044 16.9829H91.1189V0.59489H88.6044V16.9829Z" fill="white"/>
</svg>
