<svg width="78" height="13" viewBox="0 0 78 13" fill="none" xmlns="http://www.w3.org/2000/svg">
<path fill-rule="evenodd" clip-rule="evenodd" d="M6.78487 0.317998C7.07523 0.613398 7.07115 1.08825 6.77575 1.37862L2.5829 5.5H12.25C12.6642 5.5 13 5.83579 13 6.25C13 6.66421 12.6642 7 12.25 7H2.59051L6.7742 11.0886C7.07044 11.3781 7.0759 11.853 6.78639 12.1492C6.49688 12.4454 6.02204 12.4509 5.7258 12.1614L0.2258 6.78639C0.0816727 6.64554 0.000292792 6.45261 7.8851e-07 6.25109C-0.000291215 6.04956 0.0805293 5.8564 0.224248 5.71513L5.72425 0.308881C6.01965 0.0185164 6.4945 0.0225982 6.78487 0.317998Z" fill="#F1F3F4"/>
<path fill-rule="evenodd" clip-rule="evenodd" d="M38.2151 0.317998C37.9248 0.613398 37.9288 1.08825 38.2242 1.37862L42.4171 5.5H32.75C32.3358 5.5 32 5.83579 32 6.25C32 6.66421 32.3358 7 32.75 7H42.4095L38.2258 11.0886C37.9296 11.3781 37.9241 11.853 38.2136 12.1492C38.5031 12.4454 38.978 12.4509 39.2742 12.1614L44.7742 6.78639C44.9183 6.64554 44.9997 6.45261 45 6.25109C45.0003 6.04956 44.9195 5.8564 44.7758 5.71513L39.2758 0.308881C38.9804 0.0185164 38.5055 0.0225982 38.2151 0.317998Z" fill="#86888A"/>
<path d="M65.5 6.5C65.5 3.73858 67.7386 1.5 70.5 1.5C72.0073 1.5 73.3594 2.1667 74.2768 3.2232L72 5.5H77.5V0L75.3394 2.16063C74.15 0.835118 72.4228 0 70.5 0C66.9101 0 64 2.91015 64 6.5C64 10.0899 66.9101 13 70.5 13C73.0781 13 75.3042 11.499 76.3547 9.3265C76.5351 8.95359 76.3789 8.50512 76.006 8.3248C75.6331 8.14448 75.1847 8.3006 75.0043 8.6735C74.1947 10.3478 72.4812 11.5 70.5 11.5C67.7386 11.5 65.5 9.26142 65.5 6.5Z" fill="#F1F3F4"/>
</svg>
