<svg width="14" height="14" viewBox="0 0 14 14" fill="none" xmlns="http://www.w3.org/2000/svg">
<path d="M12.8177 13.9944C11.2075 13.8616 9.65975 13.4366 8.17446 12.7195C6.68917 12.0024 5.34299 11.0403 4.13591 9.83322C2.93451 8.62613 1.97895 7.28137 1.26923 5.79893C0.559515 4.31648 0.138227 2.77016 0.00536803 1.15997C-0.0241562 0.849965 0.0681069 0.579139 0.282157 0.347492C0.496208 0.115831 0.758235 0 1.06824 0H3.38131C3.6493 0 3.87982 0.0803429 4.07286 0.241028C4.26591 0.401714 4.40046 0.611506 4.47653 0.870404L4.93983 2.74573C4.97504 2.94332 4.96397 3.13636 4.90662 3.32486C4.84928 3.51336 4.75588 3.66665 4.62642 3.78475L2.58075 5.77593C2.91006 6.39366 3.27514 6.97506 3.67599 7.52012C4.07684 8.0652 4.5163 8.57506 4.99435 9.04973C5.46562 9.52097 5.97492 9.95759 6.52225 10.3596C7.06958 10.7616 7.66064 11.1272 8.29541 11.4565L10.3939 9.40742C10.5177 9.27798 10.6596 9.19168 10.8197 9.14853C10.9798 9.10538 11.1587 9.09856 11.3563 9.12809L13.1294 9.51814C13.3974 9.59195 13.6094 9.72821 13.7656 9.92693C13.9217 10.1257 13.9998 10.3619 13.9998 10.6355V12.9316C13.9998 13.2416 13.8803 13.5036 13.6412 13.7176C13.4022 13.9317 13.1277 14.0239 12.8177 13.9944Z" fill="white"/>
</svg>
