<svg width="52" height="9" viewBox="0 0 52 9" fill="none" xmlns="http://www.w3.org/2000/svg">
<path d="M8.18722 4.49175C8.18722 5.57731 7.85387 6.44674 7.19717 7.09515C6.44213 7.86381 5.45874 8.25058 4.25367 8.25058C3.10194 8.25058 2.11855 7.85731 1.31183 7.08214C0.503455 6.2956 0.100103 5.3303 0.100103 4.17486C0.100103 3.01942 0.503455 2.05411 1.31183 1.27407C2.11855 0.4924 3.10194 0.0991267 4.25367 0.0991267C4.82704 0.0991267 5.37373 0.214508 5.89543 0.42902C6.41546 0.645157 6.83881 0.937674 7.1455 1.29844L6.44879 1.98423C5.91376 1.36832 5.18539 1.06443 4.25367 1.06443C3.41362 1.06443 2.68525 1.35045 2.06688 1.92735C1.45518 2.50589 1.14849 3.25505 1.14849 4.17486C1.14849 5.09466 1.45518 5.85032 2.06688 6.42886C2.68525 6.99926 3.41362 7.29178 4.25367 7.29178C5.14539 7.29178 5.89543 6.99926 6.48713 6.42236C6.87715 6.04046 7.09883 5.51393 7.15717 4.84114H4.25367V3.90184H8.12722C8.17389 4.10498 8.18722 4.30161 8.18722 4.49175Z" fill="white" stroke="white" stroke-width="0.16" stroke-miterlimit="10"/>
<path d="M14.3327 1.23503L10.6942 1.23503V3.70516H13.9744V4.64447H10.6942V7.11461H14.3327V8.07178H9.66412V0.277848L14.3327 0.277848V1.23503Z" fill="white" stroke="white" stroke-width="0.16" stroke-miterlimit="10"/>
<path d="M18.6695 8.07178H17.6394V1.23503H15.4076V0.277848L20.9029 0.277848V1.23503H18.6695V8.07178Z" fill="white" stroke="white" stroke-width="0.16" stroke-miterlimit="10"/>
<path d="M24.8798 8.07178V0.277848H25.9082V8.07178H24.8798Z" fill="white" stroke="white" stroke-width="0.16" stroke-miterlimit="10"/>
<path d="M30.467 8.07178H29.4453V1.23503H27.2051V0.277848L32.7071 0.277848V1.23503H30.467V8.07178Z" fill="white" stroke="white" stroke-width="0.16" stroke-miterlimit="10"/>
<path d="M43.1109 7.06914C42.3225 7.85731 41.3458 8.25058 40.1807 8.25058C39.009 8.25058 38.0323 7.85731 37.2439 7.06914C36.4572 6.2826 36.0655 5.31729 36.0655 4.17486C36.0655 3.03242 36.4572 2.06711 37.2439 1.28057C38.0323 0.492399 39.009 0.0991267 40.1807 0.0991267C41.3391 0.0991267 42.3159 0.492399 43.1042 1.28707C43.8976 2.08011 44.2893 3.03892 44.2893 4.17486C44.2893 5.31729 43.8976 6.2826 43.1109 7.06914ZM38.0056 6.41586C38.599 6.99926 39.3207 7.29178 40.1807 7.29178C41.0341 7.29178 41.7625 6.99926 42.3492 6.41586C42.9409 5.83245 43.2409 5.08328 43.2409 4.17486C43.2409 3.26643 42.9409 2.51726 42.3492 1.93386C41.7625 1.35045 41.0341 1.05793 40.1807 1.05793C39.3207 1.05793 38.599 1.35045 38.0056 1.93386C37.4139 2.51726 37.1139 3.26643 37.1139 4.17486C37.1139 5.08328 37.4139 5.83245 38.0056 6.41586Z" fill="white" stroke="white" stroke-width="0.16" stroke-miterlimit="10"/>
<path d="M45.7345 8.07178V0.277848L46.9846 0.277848L50.8715 6.33944H50.9165L50.8715 4.8411V0.277848H51.8999V8.07178H50.8265L46.7562 1.71118H46.7112L46.7562 3.21601V8.07178H45.7345Z" fill="white" stroke="white" stroke-width="0.16" stroke-miterlimit="10"/>
</svg>
