<svg width="200" height="80" viewBox="0 0 200 80" fill="none" xmlns="http://www.w3.org/2000/svg">
<mask id="mask0_70_4" style="mask-type:luminance" maskUnits="userSpaceOnUse" x="0" y="20" width="168" height="40">
<path d="M167.593 20H0V60H167.593V20Z" fill="white"/>
</mask>
<g mask="url(#mask0_70_4)">
<path d="M155.013 32.5C155.013 31.0167 156.029 30 157.599 30C159.169 30 160.176 31.0167 160.176 32.5C160.176 33.9833 159.169 35 157.599 35C156.029 35 155.013 33.9833 155.013 32.5ZM159.669 32.5C159.669 31.2733 158.876 30.45 157.599 30.45C156.323 30.45 155.519 31.2733 155.519 32.5C155.519 33.7267 156.313 34.55 157.599 34.55C158.886 34.55 159.669 33.7267 159.669 32.5ZM158.203 32.5767C158.469 32.6433 158.606 32.8267 158.606 33.1033V33.4967C158.606 33.6033 158.626 33.69 158.646 33.7467H158.099C158.069 33.68 158.053 33.6033 158.053 33.4967V33.1533C158.053 32.8467 157.863 32.77 157.623 32.77H157.229V33.7467H156.663V31.2567H157.823C158.349 31.2567 158.646 31.5333 158.646 31.9767C158.646 32.2833 158.493 32.4933 158.206 32.58L158.203 32.5767ZM157.676 31.6867H157.226V32.3467H157.676C157.963 32.3467 158.079 32.25 158.079 32.01C158.079 31.77 157.966 31.6833 157.676 31.6833V31.6867Z" fill="white"/>
<path d="M26.9667 42.9067L29.6067 50H25.6733L23.6867 44.6633C22.7433 44.9633 21.7367 45.1233 20.6933 45.1233C19.7133 45.1233 18.7633 44.9833 17.87 44.7133L19.2433 41.0133C19.7067 41.1267 20.1967 41.19 20.6967 41.19C21.2567 41.19 21.8 41.1133 22.3133 40.97C23.58 40.62 24.68 39.8767 25.47 38.8733C26.1767 37.9733 26.6367 36.8733 26.74 35.67L27.6633 35.75L30.6567 36.02C30.4133 38.8 29.0267 41.2567 26.97 42.91L26.9667 42.9067ZM25.4667 38.8733C24.4867 39.6 23.2867 40.04 21.9767 40.06L19.8033 34.23L13.9333 50H10L17.4467 30H22.1667L25.4667 38.8733Z" fill="white"/>
<path d="M37.7863 50.28C33.9063 50.28 31.4463 47.5167 31.4463 42.7967C31.4463 38.0767 33.903 35.3133 37.7863 35.3133C39.963 35.3133 41.4163 36.2067 42.2263 37.77V30.12H45.8296V50.0033H42.3963V47.5467C41.613 49.2233 40.1896 50.2833 37.7896 50.2833L37.7863 50.28ZM38.623 47.5433C40.773 47.5433 42.2263 46.09 42.2263 42.7967C42.2263 39.5033 40.773 38.05 38.623 38.05C36.473 38.05 35.0496 39.5033 35.0496 42.7967C35.0496 46.09 36.503 47.5433 38.623 47.5433Z" fill="white"/>
<path d="M53.8527 50.28C49.9727 50.28 47.5127 47.5167 47.5127 42.7967C47.5127 38.0767 49.9694 35.3133 53.8527 35.3133C56.0294 35.3133 57.4827 36.2067 58.2927 37.77V30.12H61.896V50.0033H58.4627V47.5467C57.6794 49.2233 56.256 50.2833 53.856 50.2833L53.8527 50.28ZM54.6894 47.5433C56.8394 47.5433 58.2927 46.09 58.2927 42.7967C58.2927 39.5033 56.8394 38.05 54.6894 38.05C52.5394 38.05 51.116 39.5033 51.116 42.7967C51.116 46.09 52.5694 47.5433 54.6894 47.5433Z" fill="white"/>
<path d="M67.7433 50H64.1399V35.59H67.7433V50ZM68.0233 31.2266V29.98H63.8633V33.7233H65.5299C66.9066 33.7233 68.0233 32.6066 68.0233 31.23V31.2266Z" fill="white"/>
<path d="M76.6562 50.28C72.0495 50.28 69.4229 47.3467 69.4229 42.7967C69.4229 38.2467 72.0462 35.3134 76.6562 35.3134C81.2662 35.3134 83.4429 38.2467 83.4429 41.0667H80.0629C79.8129 39.3634 78.8329 38.05 76.6562 38.05C74.3662 38.05 73.0262 39.6134 73.0262 42.7967C73.0262 45.98 74.3662 47.5434 76.6562 47.5434C78.5562 47.5434 79.7829 46.5667 80.0629 44.4167H83.4429C83.4429 47.5167 81.1529 50.28 76.6562 50.28Z" fill="white"/>
<path d="M90.433 50.1401C87.1663 50.1401 86.0763 49.1334 86.0763 45.9501V38.1601H83.813V35.5901H86.0763V31.2334H89.6797V35.5901H92.8063V38.1601H89.6797V46.0901C89.6797 47.2067 90.153 47.5967 91.2997 47.5967L92.8063 47.5701V50.0001C92.2197 50.0567 91.0763 50.1401 90.433 50.1401Z" fill="white"/>
<path d="M100.579 50.28C95.8894 50.28 93.2627 47.3467 93.2627 42.7967C93.2627 38.2467 95.886 35.3134 100.579 35.3134C105.273 35.3134 107.923 38.2734 107.923 42.7967C107.923 47.32 105.299 50.28 100.579 50.28ZM100.579 47.5434C102.979 47.5434 104.323 45.98 104.323 42.7967C104.323 39.6134 102.983 38.05 100.579 38.05C98.176 38.05 96.866 39.6134 96.866 42.7967C96.866 45.98 98.206 47.5434 100.579 47.5434Z" fill="white"/>
<path d="M113.983 50H110.38V38.16H108.116V35.59H110.38V34.3334C110.38 31.3167 111.636 29.9767 114.736 29.9767C115.38 29.9767 116.523 30.06 117.11 30.1167V32.5467L115.603 32.52C114.46 32.52 113.983 33.08 113.983 34.1967V35.5934H117.11V38.1634H113.983V50.0034V50Z" fill="white"/>
<path d="M122.196 50H118.593V35.59H122.026V38.8C122.779 36.26 124.036 35.3933 126.046 35.3933C126.436 35.3933 127.023 35.5066 127.359 35.59V38.7466L125.879 38.72C123.673 38.72 122.193 40.3666 122.193 43.3V50.0033L122.196 50Z" fill="white"/>
<path d="M135.12 50.28C130.43 50.28 127.803 47.3467 127.803 42.7967C127.803 38.2467 130.317 35.3134 134.953 35.3134C139.59 35.3134 142.13 38.3867 142.13 42.63C142.13 42.9367 142.103 43.2167 142.073 43.55H131.407C131.52 46.4834 132.913 47.8234 135.12 47.8234C136.907 47.8234 138.08 46.93 138.5 45.45H141.823C141.21 48.41 139.003 50.28 135.12 50.28ZM134.953 37.77C132.97 37.77 131.713 38.9134 131.407 41.2034H138.527C138.22 38.9134 136.933 37.77 134.953 37.77Z" fill="white"/>
<path d="M150.587 50.28C145.897 50.28 143.27 47.3467 143.27 42.7967C143.27 38.2467 145.783 35.3134 150.42 35.3134C155.057 35.3134 157.597 38.3867 157.597 42.63C157.597 42.9367 157.57 43.2167 157.54 43.55H146.873C146.987 46.4834 148.38 47.8234 150.587 47.8234C152.373 47.8234 153.547 46.93 153.967 45.45H157.29C156.677 48.41 154.47 50.28 150.587 50.28ZM150.42 37.77C148.437 37.77 147.18 38.9134 146.873 41.2034H153.993C153.687 38.9134 152.4 37.77 150.42 37.77Z" fill="white"/>
</g>
</svg>
